<?xml version="1.0" encoding="iso-8859-1"?>
<!-- Uploaded to: SVG Repo, www.svgrepo.com, Generator: SVG Repo Mixer Tools -->
<!DOCTYPE svg PUBLIC "-//W3C//DTD SVG 1.1//EN" "http://www.w3.org/Graphics/SVG/1.1/DTD/svg11.dtd">
<svg fill="#000000" version="1.1" id="Capa_1" xmlns="http://www.w3.org/2000/svg" xmlns:xlink="http://www.w3.org/1999/xlink" 
	 width="800px" height="800px" viewBox="0 0 370.848 370.848"
	 xml:space="preserve">
<g>
	<path d="M78.944,275.186c28.054-2.885,38.815-64.797,37.449-84.332c1.605-1.6,25.17,16.079,23.821-11.14
		c-13.896,13.639-20.044-5.196-14.982-13.452c5.056-8.25,8.892-7.625,11.707-12.682c2.808-5.062,4.099-34.634,14.024-35.72
		c14.421,18.38,24.791,13.382,20.557,3.264c-5.756,11.251-12.675-7.701-5.289-12.973c9.423-6.527,19.506-4.963,28.977,13.096
		c2.376,7.304,0.368,28.048,1.658,32.533c1.278,4.472,16.803,21.416,16.803,28.048c0,6.632-9.75,2.522-10.276,4.612
		c-0.514,2.09-1.6,4.647-0.094,6.726c1.717,2.359,6.446,3.001,6.446,4.986c0,3.749-5.57,6.54-5.57,6.54s4.508,3.07,4.414,6.539
		c-0.094,3.444-8.133,0.688-8.256,3.83c12.051,38.604-31.388,11.98-45.523,19.209c-14.141,7.228-30.921,41.675-14.024,73.951
		c16.909,32.264,138.298,68.381,187.482,39.188c49.172-29.204,43.999-62.438,40.438-91.047
		c-3.562-28.631-34.669-42.259-53.317-31.691c-14.597,7.299-10.171,27.465,1.739,30.922c-0.198-25.924,45.133,1.914,16.139,20.364
		c-29.006,18.438-56.67-20.364-63.197-37.46s-4.799-25.936-6.912-47.631c-2.103-21.696-11.713-54.17-11.713-54.17
		S240.947,42.648,143.297,17.42C45.653-7.809-0.32,74.778,0.001,106.347c0.134,12.699,1.652,29.38,3.444,45.307
		c0.981,8.694-3.625,17.16-2.68,24.609c1.629,12.839,7.689,10.562,8.647,25.544c0.128,7.566,10.363,9.984,12.29,13.254
		s-1.413,9.411,1.53,14.023c2.966,4.625,10.895,3.971,14.217,7.111C40.778,239.349,50.902,278.047,78.944,275.186z"/>
</g>
</svg>